<svg xmlns="http://www.w3.org/2000/svg" width="24" height="24" fill="none" viewBox="0 0 24 24"><path stroke="#1A1A1A" d="M21 24a2 2 0 0 0-2-2H5a2 2 0 0 0-2 2m-2-7h11m2-3h7M5 14h4M7 7h1M4 7h1m0 12h4m3-7v10M6 1v8M3 22h18a2 2 0 0 0 2-2v-6a2 2 0 0 0-2-2H3a2 2 0 0 0-2 2v6a2 2 0 0 0 2 2ZM3 9h6a2 2 0 0 0 2-2V3a2 2 0 0 0-2-2H3a2 2 0 0 0-2 2v4a2 2 0 0 0 2 2Zm12 11h5a1 1 0 0 0 1-1v-2a1 1 0 0 0-1-1h-5a1 1 0 0 0-1 1v2a1 1 0 0 0 1 1ZM13.618 9h7.764a1 1 0 0 0 .894-1.447l-1-2A1 1 0 0 0 20.382 5h-5.764a1 1 0 0 0-.894.553l-1 2A1 1 0 0 0 13.618 9ZM19 5V2a1 1 0 0 0-1-1h-1a1 1 0 0 0-1 1v3h3Z"/></svg>