<svg xmlns="http://www.w3.org/2000/svg" width="24" height="24" fill="none" viewBox="0 0 24 24"><path stroke="#1A1A1A" d="M19 18.5V13a4 4 0 0 0-4-4m-5 0h4m-4 0V8a6 6 0 0 0-6-6H1v6a2 2 0 1 0 4 0m5 1v1a2 2 0 1 0 4 0V9m0 0h1m0 0h2a4 4 0 0 1 4 4M5 18.5V8m0 0V6m11 14v-2a4 4 0 0 0-8 0v2m1 2h6a8.002 8.002 0 0 0 7.938-7.002C23.007 14.45 22.552 14 22 14c-.552 0-.991.451-1.082.996A6.002 6.002 0 0 1 15 20H9a6.002 6.002 0 0 1-5.918-5.004C2.992 14.45 2.552 14 2 14s-1.007.45-.938.998A8.001 8.001 0 0 0 9 22Z"/></svg>